<svg width="221" height="191" viewBox="0 0 221 191" fill="none" xmlns="http://www.w3.org/2000/svg">
<g filter="url(#filter0_d_3_23)">
<path d="M5 178.275L100.664 69.7427C100.382 68.614 99.4789 66.2548 98.1244 65.8485L95.5847 63.6473L96.9392 62.0914M5 178.275L23.7942 182L36.493 175.735L87.2881 135.268L102.696 130.189H119.458M5 178.275L18.7147 167.777L32.2601 172.349L56.9804 142.566M195.82 101.066L207.334 86.6745L191.08 68.2189C191.08 68.2189 184.138 66.7515 181.936 65.8485L173.809 61.4462L192.434 38.7577L208.35 38.2498L216.308 28.2601V10.4818L208.35 1H188.54L180.074 13.6988L179.227 29.6146L157.893 55.5201C157.893 55.5201 148.129 55.1815 147.904 55.0122C146.414 54.8767 148.92 52.9804 148.92 52.9804L123.522 44.0065C123.387 45.632 113.194 48.183 108.114 49.2554L96.9392 62.0914M195.82 101.066L181.936 105.13L180.984 106.297M195.82 101.066L181.936 86.7895M136.898 160.327L107.606 174.719L111.162 157.11M136.898 160.327L130.633 149.999M136.898 160.327L180.984 106.297M111.162 157.11L119.458 144.412M111.162 157.11L130.633 149.999M119.458 144.412L119.966 130.189H119.458M119.458 144.412L154.285 99.8812M96.9392 62.0914L111.162 57.8905L123.522 62.3969M123.522 62.3969L108.114 80.9602M123.522 62.3969L126.952 63.6473M170.084 79.6805L177.873 82.6108L181.936 86.7895M170.084 79.6805L154.285 99.8812M170.084 79.6805L164.666 77.642M181.936 86.7895L180.074 89.0842M130.633 149.999L180.074 89.0842M180.074 89.0842L185.492 99.8812L180.984 106.297M154.285 99.8812L150.274 94.463L163.481 79.6805L164.666 77.642M164.666 77.642L143.671 69.7427L126.952 63.6473M108.114 80.9602L126.952 63.6473M108.114 80.9602L56.9804 142.566M56.9804 142.566C57.7931 142.688 76.3954 128.27 85.5949 121.046L106.252 116.982H117.935L123.522 125.448L119.458 130.189" stroke="white"/>
<path d="M178.889 29.2759L192.603 38.5883" stroke="white"/>
<path d="M107.945 49.7634L123.691 43.668L158.232 54.3349" stroke="white"/>
<path d="M175.502 59.9224L191.418 68.3882L208.011 86.5051L198.53 103.775L181.598 106.146" stroke="white"/>
<path d="M32.4294 172.349L36.3237 175.735" stroke="white"/>
<path d="M121.152 109.701L97.9551 107.67L107.098 103.775L126.062 104.791L121.152 109.701Z" stroke="white"/>
<path d="M136.559 109.194L134.02 104.961L143.501 100.728L140.792 104.961L150.951 103.606L136.559 109.194Z" stroke="white"/>
<path d="M125.384 92.2619L123.861 90.0608L115.056 92.2619L111.5 97.1721L130.464 97.8494L119.458 93.4471L125.384 92.2619Z" stroke="white"/>
<path d="M111.5 57.2132L123.353 44.1758M134.697 87.3516L138.422 90.738L142.316 87.3516H134.697Z" stroke="white"/>
<path d="M177.534 82.4415L190.91 68.3882" stroke="white"/>
<path d="M165.682 45.6997C169.068 45.5304 176.823 46.7156 180.751 52.811" stroke="white"/>
<path d="M160.772 51.1179C163.537 50.3842 170.524 50.6777 176.349 57.7213" stroke="white"/>
<path d="M179.905 14.2068L188.37 23.3499L207.165 22.5033L216.138 11.3284" stroke="white"/>
<path d="M180.582 15.0533L188.54 13.3601L183.968 18.4396" stroke="white"/>
<path d="M170.592 40.2815C178.449 42.4488 183.46 46.6027 184.984 48.4087" stroke="white"/>
<path d="M174.148 34.0168C177.986 35.1456 186.542 38.3514 190.064 42.1441" stroke="white"/>
<path d="M188.032 22.842L192.096 38.2499" stroke="white"/>
<path d="M206.657 22.5034L208.35 37.234" stroke="white"/>
<path d="M180.751 61.9541L200.73 38.927" stroke="white"/>
</g>
<defs>
<filter id="filter0_d_3_23" x="0.0500488" y="0.5" width="220.758" height="190.023" filterUnits="userSpaceOnUse" color-interpolation-filters="sRGB">
<feFlood flood-opacity="0" result="BackgroundImageFix"/>
<feColorMatrix in="SourceAlpha" type="matrix" values="0 0 0 0 0 0 0 0 0 0 0 0 0 0 0 0 0 0 127 0" result="hardAlpha"/>
<feOffset dy="4"/>
<feGaussianBlur stdDeviation="2"/>
<feComposite in2="hardAlpha" operator="out"/>
<feColorMatrix type="matrix" values="0 0 0 0 0 0 0 0 0 0 0 0 0 0 0 0 0 0 0.25 0"/>
<feBlend mode="normal" in2="BackgroundImageFix" result="effect1_dropShadow_3_23"/>
<feBlend mode="normal" in="SourceGraphic" in2="effect1_dropShadow_3_23" result="shape"/>
</filter>
</defs>
</svg>
