<svg width="82" height="72" viewBox="0 0 82 72" fill="none" xmlns="http://www.w3.org/2000/svg">
<g filter="url(#filter0_d_9_78)">
<path d="M5.00183 61.7294L37.7708 24.5526C37.6741 24.166 37.3648 23.3578 36.9008 23.2187L36.0308 22.4647L36.4948 21.9317M5.00183 61.7294L11.4396 63.0054L15.7895 60.8594L33.1889 46.9979L38.4667 45.2579H44.2086M5.00183 61.7294L9.69968 58.1335L14.3395 59.6995L22.8073 49.4976M70.3657 35.2823L74.3096 30.3524L68.7418 24.0306C68.7418 24.0306 66.3638 23.528 65.6099 23.2187L62.826 21.7107L69.2058 13.939L74.6576 13.765L77.3835 10.3431V4.25327L74.6576 1.00537H67.8718L64.9719 5.35523L64.6819 10.8071L57.3741 19.6808C57.3741 19.6808 54.0296 19.5648 53.9522 19.5068C53.4419 19.4604 54.3002 18.8108 54.3002 18.8108L45.6005 15.7369C45.5541 16.2937 42.0626 17.1675 40.3227 17.5348L36.4948 21.9317M70.3657 35.2823L65.6099 36.6742L65.2837 37.0739M70.3657 35.2823L65.6099 30.3918M50.1824 55.5816L40.1487 60.5115L41.3667 54.4796M50.1824 55.5816L48.0364 52.0437M50.1824 55.5816L65.2837 37.0739M41.3667 54.4796L44.2086 50.1298M41.3667 54.4796L48.0364 52.0437M44.2086 50.1298L44.3826 45.2579H44.2086M44.2086 50.1298L56.1382 34.8763M36.4948 21.9317L41.3667 20.4927L45.6005 22.0363M45.6005 22.0363L40.3227 28.3951M45.6005 22.0363L46.7754 22.4647M61.55 27.9567L64.2179 28.9605L65.6099 30.3918M61.55 27.9567L56.1382 34.8763M61.55 27.9567L59.6941 27.2584M65.6099 30.3918L64.9719 31.1779M48.0364 52.0437L64.9719 31.1779M64.9719 31.1779L66.8278 34.8763L65.2837 37.0739M56.1382 34.8763L54.7642 33.0203L59.2881 27.9567L59.6941 27.2584M59.6941 27.2584L52.5023 24.5526L46.7754 22.4647M40.3227 28.3951L46.7754 22.4647M40.3227 28.3951L22.8073 49.4976M22.8073 49.4976C23.0856 49.5394 29.4577 44.6006 32.6089 42.126L39.6847 40.7341H43.6866L45.6005 43.634L44.2086 45.2579" stroke="white"/>
<path d="M64.5659 10.6909L69.2638 13.8808" stroke="white"/>
<path d="M40.2646 17.7085L45.6585 15.6206L57.4901 19.2745" stroke="white"/>
<path d="M63.4059 21.1885L68.8577 24.0884L74.5415 30.2942L71.2936 36.21L65.4938 37.022" stroke="white"/>
<path d="M14.3975 59.6992L15.7314 60.8592" stroke="white"/>
<path d="M44.7886 38.2399L36.8429 37.5439L39.9748 36.21L46.4706 36.5579L44.7886 38.2399Z" stroke="white"/>
<path d="M50.0664 38.0664L49.1964 36.6165L52.4443 35.1665L51.5163 36.6165L54.9962 36.1525L50.0664 38.0664Z" stroke="white"/>
<path d="M46.2385 32.2667L45.7165 31.5127L42.7006 32.2667L41.4827 33.9486L47.9785 34.1806L44.2086 32.6727L46.2385 32.2667Z" stroke="white"/>
<path d="M41.4827 20.2608L45.5425 15.7949M49.4284 30.5844L50.7044 31.7444L52.0383 30.5844H49.4284Z" stroke="white"/>
<path d="M64.1019 28.9027L68.6838 24.0889" stroke="white"/>
<path d="M60.042 16.3167C61.202 16.2587 63.8583 16.6647 65.2038 18.7526" stroke="white"/>
<path d="M58.36 18.1725C59.3073 17.9212 61.7007 18.0217 63.6958 20.4345" stroke="white"/>
<path d="M64.9139 5.52894L67.8138 8.66084L74.2516 8.37085L77.3255 4.54297" stroke="white"/>
<path d="M65.1459 5.81924L67.8718 5.23926L66.3058 6.9792" stroke="white"/>
<path d="M61.7241 14.4609C64.4152 15.2033 66.132 16.6262 66.654 17.2448" stroke="white"/>
<path d="M62.9419 12.3149C64.2565 12.7016 67.1874 13.7997 68.3937 15.0989" stroke="white"/>
<path d="M67.6979 8.4873L69.0898 13.7651" stroke="white"/>
<path d="M74.0776 8.37061L74.6576 13.4164" stroke="white"/>
<path d="M65.2039 21.8848L72.0476 13.9971" stroke="white"/>
</g>
<defs>
<filter id="filter0_d_9_78" x="0.052002" y="0.505371" width="81.8315" height="71.0234" filterUnits="userSpaceOnUse" color-interpolation-filters="sRGB">
<feFlood flood-opacity="0" result="BackgroundImageFix"/>
<feColorMatrix in="SourceAlpha" type="matrix" values="0 0 0 0 0 0 0 0 0 0 0 0 0 0 0 0 0 0 127 0" result="hardAlpha"/>
<feOffset dy="4"/>
<feGaussianBlur stdDeviation="2"/>
<feComposite in2="hardAlpha" operator="out"/>
<feColorMatrix type="matrix" values="0 0 0 0 0 0 0 0 0 0 0 0 0 0 0 0 0 0 0.25 0"/>
<feBlend mode="normal" in2="BackgroundImageFix" result="effect1_dropShadow_9_78"/>
<feBlend mode="normal" in="SourceGraphic" in2="effect1_dropShadow_9_78" result="shape"/>
</filter>
</defs>
</svg>
