<svg width="16" height="10" viewBox="0 0 16 10" fill="none" xmlns="http://www.w3.org/2000/svg">
<path fill-rule="evenodd" clip-rule="evenodd" d="M15.2754 0.714831C15.571 1.00502 15.5753 1.47988 15.2852 1.77547L9.45563 7.71294C9.31461 7.8566 9.12173 7.93749 8.92046 7.93749C8.71914 7.93749 8.52632 7.8566 8.3853 7.71294L5.85225 5.13303L1.78517 9.27545C1.49498 9.57099 1.02012 9.57538 0.724557 9.28518C0.428992 8.99499 0.424632 8.52013 0.714826 8.22453L5.31709 3.53705C5.45811 3.39345 5.65099 3.3125 5.85225 3.3125C6.05357 3.3125 6.24639 3.39345 6.38747 3.53705L8.92046 6.11696L14.2148 0.724557C14.505 0.428991 14.9799 0.424631 15.2754 0.714831Z" fill="white"/>
</svg>
